<?xml version="1.0" encoding="UTF-8" standalone="no"?>
<svg
   class="svg-icon"
   style="overflow:hidden;fill:currentColor"
   viewBox="0 0 66 66"
   version="1.1"
   id="svg1"
   sodipodi:docname="search.svg"
   width="66"
   height="66"
   inkscape:version="1.4.2 (ebf0e940d0, 2025-05-08)"
   xmlns:inkscape="http://www.inkscape.org/namespaces/inkscape"
   xmlns:sodipodi="http://sodipodi.sourceforge.net/DTD/sodipodi-0.dtd"
   xmlns="http://www.w3.org/2000/svg"
   xmlns:svg="http://www.w3.org/2000/svg">
  <defs
     id="defs1" />
  <sodipodi:namedview
     id="namedview1"
     pagecolor="#ffffff"
     bordercolor="#000000"
     borderopacity="0.25"
     inkscape:showpageshadow="2"
     inkscape:pageopacity="0.0"
     inkscape:pagecheckerboard="0"
     inkscape:deskcolor="#d1d1d1"
     inkscape:zoom="2.1933073"
     inkscape:cx="43.769517"
     inkscape:cy="126.97719"
     inkscape:window-width="1880"
     inkscape:window-height="918"
     inkscape:window-x="0"
     inkscape:window-y="0"
     inkscape:window-maximized="1"
     inkscape:current-layer="svg1" />
  <path
     d="M 64.197441,60.211027 48.67428,44.351617 c -0.25646,-0.26202 -0.55116,-0.46062 -0.86564,-0.59706 3.33492,-4.47506 5.3152,-10.06158 5.3152,-16.12167 0,-14.71073 -11.66816,-26.632894 -26.06218,-26.632894 -14.39394,0 -26.0616585,11.922236 -26.0616585,26.632904 0,14.71104 11.6677185,26.63299 26.0617385,26.63299 6.60626,0 12.63818,-2.51156 17.23154,-6.65123 0.1272,0.25434 0.2942,0.49304 0.5023,0.70568 l 15.519341,15.85935 c 1.0701,1.09376 2.80862,1.09376 3.8825,0 1.0701,-1.09376 1.0701,-2.87496 2e-5,-3.96866 z M 27.06174,50.062787 c -12.12042,0 -21.9486585,-10.04307 -21.9486585,-22.42989 0,-12.390615 9.8281585,-22.429448 21.9486585,-22.429448 12.12086,0 21.94866,10.038825 21.94866,22.429448 0,12.38682 -9.82786,22.42989 -21.94866,22.42989 z"
     id="path1"
     style="stroke-width:0.0714822" />
</svg>
