<?xml version="1.0" encoding="UTF-8" standalone="no"?> <svg class=svg-icon height=66 id=svg1 inkscape:version="1.4.2 (ebf0e940d0, 2025-05-08)" sodipodi:docname=search.svg style=fill:currentColor;overflow:hidden version=1.1 viewBox="0 0 66 66" width=66 xmlns=http://www.w3.org/2000/svg xmlns:inkscape=http://www.inkscape.org/namespaces/inkscape xmlns:sodipodi=http://sodipodi.sourceforge.net/DTD/sodipodi-0.dtd xmlns:svg=http://www.w3.org/2000/svg><defs id=defs1 /><sodipodi:namedview bordercolor=#000000 borderopacity=0.25 id=namedview1 inkscape:current-layer=svg1 inkscape:cx=43.769517 inkscape:cy=126.97719 inkscape:deskcolor=#d1d1d1 inkscape:pagecheckerboard=0 inkscape:pageopacity=0.0 inkscape:showpageshadow=2 inkscape:window-height=918 inkscape:window-maximized=1 inkscape:window-width=1880 inkscape:window-x=0 inkscape:window-y=0 inkscape:zoom=2.1933073 pagecolor=#ffffff /><path d="M 64.197,60.211 48.674,44.352 c -0.256,-0.262 -0.551,-0.461 -0.866,-0.597 3.335,-4.475 5.315,-10.062 5.315,-16.122 0,-14.711 -11.668,-26.633 -26.062,-26.633 -14.394,0 -26.062,11.922 -26.062,26.633 0,14.711 11.668,26.633 26.062,26.633 6.606,0 12.638,-2.512 17.232,-6.651 0.127,0.254 0.294,0.493 0.502,0.706 l 15.519,15.859 c 1.07,1.094 2.809,1.094 3.882,0 1.07,-1.094 1.07,-2.875 0,-3.969 z M 27.062,50.063 c -12.12,0 -21.949,-10.043 -21.949,-22.43 0,-12.391 9.828,-22.429 21.949,-22.429 12.121,0 21.949,10.039 21.949,22.429 0,12.387 -9.828,22.43 -21.949,22.43 z" id=path1 style=stroke-width:.0714822px /></svg>